<svg width="20" height="26" viewBox="0 0 20 26" fill="none" xmlns="http://www.w3.org/2000/svg">
<path d="M10 14.4662C11.4127 14.4662 12.7937 14.0618 13.9684 13.3043C15.143 12.5467 16.0585 11.47 16.5991 10.2102C17.1398 8.95046 17.2812 7.56425 17.0056 6.22689C16.73 4.88953 16.0497 3.66109 15.0508 2.6969C14.0518 1.73272 12.7791 1.0761 11.3935 0.810087C10.0079 0.54407 8.57173 0.680599 7.26655 1.20241C5.96136 1.72422 4.8458 2.60788 4.06093 3.74164C3.27606 4.8754 2.85714 6.20834 2.85714 7.5719C2.85714 9.40038 3.60969 11.154 4.94924 12.4469C6.28878 13.7398 8.1056 14.4662 10 14.4662V14.4662ZM10 3.43533C10.8476 3.43533 11.6762 3.67794 12.381 4.13247C13.0858 4.587 13.6351 5.23304 13.9595 5.9889C14.2839 6.74476 14.3687 7.57649 14.2034 8.37891C14.038 9.18132 13.6298 9.91839 13.0305 10.4969C12.4311 11.0754 11.6674 11.4694 10.8361 11.629C10.0048 11.7886 9.14304 11.7067 8.35993 11.3936C7.57682 11.0805 6.90748 10.5503 6.43656 9.87006C5.96564 9.1898 5.71429 8.39004 5.71429 7.5719C5.71429 6.47481 6.16581 5.42266 6.96954 4.6469C7.77327 3.87115 8.86336 3.43533 10 3.43533V3.43533ZM20 21.3605V24.1182C20 24.4839 19.8495 24.8346 19.5816 25.0932C19.3137 25.3518 18.9503 25.497 18.5714 25.497C18.1925 25.497 17.8292 25.3518 17.5613 25.0932C17.2934 24.8346 17.1429 24.4839 17.1429 24.1182V21.3605C17.1429 20.9948 16.9923 20.6441 16.7244 20.3855C16.4565 20.1269 16.0932 19.9816 15.7143 19.9816H4.28571C3.90683 19.9816 3.54347 20.1269 3.27556 20.3855C3.00765 20.6441 2.85714 20.9948 2.85714 21.3605V24.1182C2.85714 24.4839 2.70663 24.8346 2.43872 25.0932C2.17081 25.3518 1.80745 25.497 1.42857 25.497C1.04969 25.497 0.686328 25.3518 0.418419 25.0932C0.15051 24.8346 0 24.4839 0 24.1182V21.3605C0 20.2634 0.451529 19.2112 1.25526 18.4355C2.05898 17.6597 3.14907 17.2239 4.28571 17.2239H15.7143C16.8509 17.2239 17.941 17.6597 18.7447 18.4355C19.5485 19.2112 20 20.2634 20 21.3605Z" fill="white"/>
</svg>
