<svg width="15" height="27" viewBox="0 0 15 27" fill="none" xmlns="http://www.w3.org/2000/svg">
<path d="M14.5568 11.9943C14.6972 12.1287 14.8087 12.2887 14.8848 12.4649C14.9608 12.6411 15 12.8301 15 13.021C15 13.2119 14.9608 13.4009 14.8848 13.5772C14.8087 13.7534 14.6972 13.9133 14.5568 14.0478L2.57072 25.6168C2.43143 25.7523 2.26572 25.8599 2.08315 25.9333C1.90057 26.0067 1.70474 26.0445 1.50695 26.0445C1.30916 26.0445 1.11333 26.0067 0.930753 25.9333C0.748176 25.8599 0.582466 25.7523 0.443184 25.6168C0.302754 25.4823 0.191292 25.3224 0.115227 25.1462C0.0391623 24.9699 0 24.7809 0 24.59C0 24.3991 0.0391623 24.2101 0.115227 24.0339C0.191292 23.8576 0.302754 23.6977 0.443184 23.5633L11.3805 13.021L0.443184 2.47879C0.161055 2.20648 0.00255693 1.83714 0.00255694 1.45204C0.00255694 1.06693 0.161055 0.697603 0.443184 0.425292C0.725312 0.152982 1.10796 2.86926e-09 1.50695 0C1.90594 -2.86926e-09 2.28859 0.152982 2.57072 0.425292L14.5568 11.9943Z" fill="black"/>
</svg>
