<svg width="15" height="27" viewBox="0 0 15 27" fill="none" xmlns="http://www.w3.org/2000/svg">
<path d="M14.5568 23.5633C14.6972 23.6977 14.8087 23.8576 14.8848 24.0339C14.9608 24.2101 15 24.3991 15 24.59C15 24.7809 14.9608 24.9699 14.8848 25.1462C14.8087 25.3224 14.6972 25.4823 14.5568 25.6168C14.4175 25.7523 14.2518 25.8599 14.0692 25.9333C13.8867 26.0067 13.6908 26.0445 13.4931 26.0445C13.2953 26.0445 13.0994 26.0067 12.9169 25.9333C12.7343 25.8599 12.5686 25.7523 12.4293 25.6168L0.443184 14.0478C0.302754 13.9133 0.191292 13.7534 0.115227 13.5772C0.0391623 13.4009 0 13.2119 0 13.021C0 12.8301 0.0391623 12.6411 0.115227 12.4649C0.191292 12.2887 0.302754 12.1287 0.443184 11.9943L12.4293 0.425293C12.7114 0.152982 13.0941 0 13.4931 0C13.6906 0 13.8862 0.0375582 14.0688 0.11053C14.2513 0.183502 14.4171 0.290458 14.5568 0.425293C14.6965 0.560127 14.8073 0.720199 14.8829 0.896369C14.9585 1.07254 14.9974 1.26136 14.9974 1.45204C14.9974 1.64272 14.9585 1.83154 14.8829 2.00771C14.8073 2.18388 14.6965 2.34395 14.5568 2.47879L3.6195 13.021L14.5568 23.5633Z" fill="black"/>
</svg>
