<svg width="10" height="6" viewBox="0 0 10 6" fill="none" xmlns="http://www.w3.org/2000/svg">
<path d="M9.71409 1.70921L5.71409 5.70921C5.62113 5.80294 5.51053 5.87733 5.38867 5.9281C5.26681 5.97887 5.1361 6.00501 5.00409 6.00501C4.87208 6.00501 4.74137 5.97887 4.61951 5.9281C4.49766 5.87733 4.38705 5.80294 4.29409 5.70921L0.294092 1.70921C0.200853 1.61597 0.126893 1.50528 0.0764322 1.38346C0.0259719 1.26164 9.82427e-10 1.13107 0 0.999208C-9.82427e-10 0.867349 0.0259719 0.736781 0.0764322 0.614959C0.126893 0.493137 0.200853 0.382447 0.294092 0.289208C0.38733 0.19597 0.498021 0.122009 0.619843 0.0715485C0.741665 0.0210881 0.872233 -0.00488281 1.00409 -0.00488281C1.13595 -0.00488281 1.26652 0.0210881 1.38834 0.0715485C1.51016 0.122009 1.62085 0.19597 1.71409 0.289208L5.00409 3.58921L8.29409 0.289208C8.4824 0.100905 8.73779 -0.00488281 9.00409 -0.00488281C9.27039 -0.00488281 9.52579 0.100905 9.71409 0.289208C9.90239 0.477512 10.0082 0.732907 10.0082 0.999208C10.0082 1.26551 9.90239 1.5209 9.71409 1.70921Z" fill="black"/>
</svg>
