<svg width="20" height="22" viewBox="0 0 20 22" fill="none" xmlns="http://www.w3.org/2000/svg">
<path d="M19.9999 11.8936C19.9972 11.3217 19.8688 10.7569 19.6232 10.2365C19.3777 9.71612 19.0205 9.25192 18.5753 8.87459C18.5746 7.65158 18.2929 6.44394 17.7505 5.33865V5.33865C17.056 3.92338 15.9595 2.72748 14.5885 1.89004C13.2175 1.0526 11.6283 0.608032 10.0059 0.608032C8.38341 0.608032 6.79428 1.0526 5.42329 1.89004C4.0523 2.72748 2.95579 3.92338 2.26127 5.33865V5.33865C1.72056 6.4445 1.43895 7.65177 1.43647 8.87459C1.43647 8.87459 1.43647 8.87459 1.43647 8.87459L1.20081 9.07103C0.428492 9.8835 0 10.946 0 12.0487C0 13.1513 0.428492 14.2138 1.20081 15.0263C1.58219 15.4245 2.04425 15.7428 2.55833 15.9616C3.07242 16.1803 3.62757 16.2948 4.18939 16.298H4.65C4.79097 16.2988 4.93072 16.2727 5.06123 16.2212C5.19174 16.1698 5.31044 16.094 5.41053 15.9981C5.60082 15.8133 5.71177 15.5659 5.72117 15.3054V8.87459C5.72117 8.60038 5.60832 8.3374 5.40743 8.14351C5.20655 7.94962 4.93409 7.84069 4.65 7.84069H4.2001C4.02067 7.84766 3.84182 7.86492 3.66451 7.89238C3.75813 7.312 3.93854 6.74781 4.2001 6.21747C4.7216 5.15742 5.54391 4.26189 6.57157 3.63485C7.59924 3.0078 8.79009 2.67495 10.0059 2.67495C11.2217 2.67495 12.4125 3.0078 13.4402 3.63485C14.4678 4.26189 15.2901 5.15742 15.8116 6.21747V6.21747C16.0732 6.74781 16.2536 7.312 16.3472 7.89238C16.1699 7.86492 15.9911 7.84766 15.8116 7.84069H15.3618C15.0777 7.84069 14.8052 7.94962 14.6043 8.14351C14.4034 8.3374 14.2906 8.60038 14.2906 8.87459V14.9022C14.2898 15.0383 14.3168 15.1732 14.3701 15.2991C14.4234 15.4251 14.5019 15.5397 14.6012 15.6363C14.7013 15.7321 14.82 15.8079 14.9505 15.8594C15.081 15.9108 15.2208 15.9369 15.3618 15.9361H15.8116C16.0201 15.9313 16.2279 15.9106 16.4329 15.8741V18.1797C16.4329 18.4539 16.3201 18.7169 16.1192 18.9108C15.9183 19.1046 15.6458 19.2136 15.3618 19.2136H14.2906C14.3249 19.0432 14.3428 18.8702 14.3441 18.6966C14.3442 18.3528 14.2732 18.0124 14.1353 17.6954C13.9974 17.3784 13.7953 17.0911 13.5409 16.8504C13.2866 16.6097 12.985 16.4204 12.6539 16.2936C12.3228 16.1668 11.9688 16.105 11.6126 16.1119H9.47029C8.76005 16.1119 8.07891 16.3842 7.5767 16.8689C7.07449 17.3537 6.79235 18.0111 6.79235 18.6966C6.79235 19.3821 7.07449 20.0396 7.5767 20.5243C8.07891 21.0091 8.76005 21.2814 9.47029 21.2814H15.3618C16.214 21.2814 17.0314 20.9546 17.6341 20.3729C18.2367 19.7912 18.5753 19.0023 18.5753 18.1797V15.078C18.5803 15.0299 18.5803 14.9814 18.5753 14.9332C19.0254 14.5553 19.3856 14.0882 19.6315 13.5636C19.8774 13.039 20.003 12.4693 19.9999 11.8936V11.8936ZM2.15416 12.09C2.14833 11.5123 2.37046 10.9542 2.77544 10.5288C2.99783 10.3009 3.2732 10.1272 3.57882 10.0222V14.1578C3.27579 14.0528 3.00119 13.8831 2.77544 13.6615C2.37069 13.2319 2.14882 12.6707 2.15416 12.09V12.09ZM10.0059 19.2136H9.47029C9.32824 19.2136 9.19201 19.1591 9.09157 19.0622C8.99113 18.9652 8.9347 18.8337 8.9347 18.6966C8.9347 18.5595 8.99113 18.428 9.09157 18.3311C9.19201 18.2341 9.32824 18.1797 9.47029 18.1797H11.6126C11.7547 18.1797 11.8909 18.2341 11.9914 18.3311C12.0918 18.428 12.1482 18.5595 12.1482 18.6966C12.1482 18.8337 12.0918 18.9652 11.9914 19.0622C11.8909 19.1591 11.7547 19.2136 11.6126 19.2136H10.0059ZM16.4329 13.7649V10.0119C16.8481 10.1359 17.2113 10.3851 17.4692 10.7227C17.7271 11.0604 17.8662 11.4689 17.8662 11.8884C17.8662 12.3079 17.7271 12.7164 17.4692 13.0541C17.2113 13.3917 16.8481 13.6409 16.4329 13.7649V13.7649Z" fill="white"/>
</svg>
