<svg width="20" height="16" viewBox="0 0 20 16" fill="none" xmlns="http://www.w3.org/2000/svg">
<path d="M0 1.57605C0 1.29162 0.117063 1.01884 0.325437 0.817713C0.533811 0.616591 0.816426 0.503601 1.11111 0.503601H18.8889C19.1836 0.503601 19.4662 0.616591 19.6746 0.817713C19.8829 1.01884 20 1.29162 20 1.57605C20 1.86048 19.8829 2.13326 19.6746 2.33438C19.4662 2.5355 19.1836 2.64849 18.8889 2.64849H1.11111C0.816426 2.64849 0.533811 2.5355 0.325437 2.33438C0.117063 2.13326 0 1.86048 0 1.57605ZM18.8889 6.93827H1.11111C0.816426 6.93827 0.533811 7.05126 0.325437 7.25238C0.117063 7.4535 0 7.72628 0 8.01071C0 8.29514 0.117063 8.56792 0.325437 8.76904C0.533811 8.97017 0.816426 9.08316 1.11111 9.08316H18.8889C19.1836 9.08316 19.4662 8.97017 19.6746 8.76904C19.8829 8.56792 20 8.29514 20 8.01071C20 7.72628 19.8829 7.4535 19.6746 7.25238C19.4662 7.05126 19.1836 6.93827 18.8889 6.93827ZM18.8889 13.3729H1.11111C0.816426 13.3729 0.533811 13.4859 0.325437 13.687C0.117063 13.8882 0 14.1609 0 14.4454C0 14.7298 0.117063 15.0026 0.325437 15.2037C0.533811 15.4048 0.816426 15.5178 1.11111 15.5178H18.8889C19.1836 15.5178 19.4662 15.4048 19.6746 15.2037C19.8829 15.0026 20 14.7298 20 14.4454C20 14.1609 19.8829 13.8882 19.6746 13.687C19.4662 13.4859 19.1836 13.3729 18.8889 13.3729Z" fill="white"/>
</svg>
