<svg width="16" height="22" viewBox="0 0 16 22" fill="none" xmlns="http://www.w3.org/2000/svg">
<path d="M8 11.7203C9.13018 11.7203 10.235 11.3766 11.1747 10.7327C12.1144 10.0888 12.8468 9.17353 13.2793 8.10272C13.7118 7.03192 13.825 5.85364 13.6045 4.71689C13.384 3.58013 12.8398 2.53595 12.0406 1.7164C11.2415 0.896843 10.2233 0.338719 9.1148 0.112604C8.00634 -0.113511 6.85739 0.00253911 5.81324 0.446079C4.76909 0.88962 3.87664 1.64073 3.24875 2.60442C2.62085 3.56812 2.28571 4.70112 2.28571 5.86015C2.28571 7.41435 2.88775 8.9049 3.95939 10.0039C5.03103 11.1029 6.48448 11.7203 8 11.7203V11.7203ZM8 2.34406C8.67811 2.34406 9.34099 2.55027 9.90481 2.93663C10.4686 3.32298 10.9081 3.87212 11.1676 4.5146C11.4271 5.15708 11.495 5.86405 11.3627 6.5461C11.2304 7.22815 10.9039 7.85466 10.4244 8.34639C9.94487 8.83813 9.33396 9.173 8.66888 9.30867C8.0038 9.44434 7.31443 9.37471 6.68794 9.10859C6.06145 8.84246 5.52598 8.3918 5.14925 7.81358C4.77251 7.23536 4.57143 6.55556 4.57143 5.86015C4.57143 4.92762 4.93265 4.03329 5.57563 3.3739C6.21862 2.7145 7.09069 2.34406 8 2.34406V2.34406ZM16 17.5804V19.9245C16 20.2353 15.8796 20.5334 15.6653 20.7532C15.4509 20.973 15.1602 21.0965 14.8571 21.0965C14.554 21.0965 14.2633 20.973 14.049 20.7532C13.8347 20.5334 13.7143 20.2353 13.7143 19.9245V17.5804C13.7143 17.2696 13.5939 16.9715 13.3796 16.7517C13.1652 16.5319 12.8745 16.4084 12.5714 16.4084H3.42857C3.12547 16.4084 2.83478 16.5319 2.62045 16.7517C2.40612 16.9715 2.28571 17.2696 2.28571 17.5804V19.9245C2.28571 20.2353 2.16531 20.5334 1.95098 20.7532C1.73665 20.973 1.44596 21.0965 1.14286 21.0965C0.839753 21.0965 0.549063 20.973 0.334735 20.7532C0.120408 20.5334 0 20.2353 0 19.9245V17.5804C0 16.6479 0.361224 15.7536 1.00421 15.0942C1.64719 14.4348 2.51926 14.0643 3.42857 14.0643H12.5714C13.4807 14.0643 14.3528 14.4348 14.9958 15.0942C15.6388 15.7536 16 16.6479 16 17.5804Z" fill="white"/>
</svg>
