<svg width="20" height="20" viewBox="0 0 20 20" fill="none" xmlns="http://www.w3.org/2000/svg">
<path d="M19.6905 18.136L15.0599 13.6768C16.2158 12.2579 16.8424 10.5044 16.8385 8.69943C16.8385 7.09221 16.3447 5.52109 15.4196 4.18473C14.4945 2.84838 13.1796 1.80682 11.6411 1.19176C10.1027 0.576702 8.4099 0.415775 6.77673 0.729328C5.14356 1.04288 3.64339 1.81683 2.46594 2.95331C1.28849 4.08978 0.486635 5.53774 0.161777 7.11408C-0.163081 8.69042 0.0036479 10.3243 0.64088 11.8092C1.27811 13.2941 2.35723 14.5632 3.74176 15.4562C5.1263 16.3491 6.75407 16.8257 8.41924 16.8257C10.2893 16.8295 12.106 16.2247 13.576 15.109L18.1961 19.5784C18.3943 19.7697 18.663 19.8772 18.9433 19.8772C19.2235 19.8772 19.4923 19.7697 19.6905 19.5784C19.8887 19.3872 20 19.1278 20 18.8572C20 18.5867 19.8887 18.3273 19.6905 18.136ZM3.95705 13.0571C2.91185 12.0706 2.25366 10.7647 2.09478 9.36201C1.93589 7.95937 2.28615 6.54698 3.0858 5.36579C3.88545 4.1846 5.08494 3.3078 6.47964 2.88499C7.87433 2.46217 9.37781 2.51954 10.7336 3.04729C12.0893 3.57504 13.2134 4.54049 13.9139 5.77892C14.6145 7.01735 14.8482 8.45202 14.5751 9.83818C14.302 11.2243 13.539 12.4761 12.4164 13.3799C11.2938 14.2837 9.88107 14.7835 8.41924 14.7941C6.74512 14.7927 5.14009 14.1496 3.95705 13.0063V13.0571Z" fill="white"/>
</svg>
