<svg width="20" height="35" viewBox="0 0 20 35" fill="none" xmlns="http://www.w3.org/2000/svg">
<path d="M19.4091 31.4177C19.5963 31.5969 19.7449 31.8102 19.8464 32.0451C19.9478 32.2801 20 32.5321 20 32.7867C20 33.0412 19.9478 33.2932 19.8464 33.5282C19.7449 33.7632 19.5963 33.9764 19.4091 34.1557C19.2234 34.3364 19.0024 34.4798 18.759 34.5777C18.5156 34.6756 18.2545 34.726 17.9907 34.726C17.727 34.726 17.4659 34.6756 17.2225 34.5777C16.979 34.4798 16.7581 34.3364 16.5724 34.1557L0.590911 18.7304C0.403672 18.5511 0.255056 18.3379 0.153636 18.1029C0.0522164 17.8679 0 17.6159 0 17.3614C0 17.1068 0.0522164 16.8548 0.153636 16.6198C0.255056 16.3849 0.403672 16.1716 0.590911 15.9924L16.5724 0.567057C16.9485 0.203977 17.4587 0 17.9907 0C18.2541 0 18.515 0.0500776 18.7583 0.147373C19.0017 0.244669 19.2228 0.387278 19.4091 0.567057C19.5954 0.746836 19.7431 0.960265 19.8439 1.19516C19.9447 1.43005 19.9966 1.68181 19.9966 1.93605C19.9966 2.1903 19.9447 2.44206 19.8439 2.67695C19.7431 2.91184 19.5954 3.12527 19.4091 3.30505L4.826 17.3614L19.4091 31.4177Z" fill="white"/>
</svg>
