<svg width="20" height="20" viewBox="0 0 20 20" fill="none" xmlns="http://www.w3.org/2000/svg">
<path d="M10 0C8.02219 0 6.08879 0.56608 4.4443 1.62666C2.79981 2.68723 1.51809 4.19467 0.761209 5.95834C0.00433284 7.72201 -0.1937 9.66271 0.192152 11.535C0.578004 13.4073 1.53041 15.1271 2.92894 16.477C4.32746 17.8268 6.10929 18.7461 8.0491 19.1185C9.98891 19.491 11.9996 19.2998 13.8268 18.5693C15.6541 17.8387 17.2159 16.6016 18.3147 15.0144C19.4135 13.4271 20 11.561 20 9.652C20 8.38448 19.7413 7.12937 19.2388 5.95834C18.7362 4.7873 17.9997 3.72328 17.0711 2.82701C16.1425 1.93073 15.0401 1.21977 13.8268 0.734715C12.6136 0.249656 11.3132 0 10 0ZM10 17.3736C8.41775 17.3736 6.87103 16.9207 5.55544 16.0723C4.23985 15.2238 3.21447 14.0179 2.60897 12.6069C2.00347 11.196 1.84504 9.64343 2.15372 8.14559C2.4624 6.64775 3.22433 5.27189 4.34315 4.192C5.46197 3.11212 6.88743 2.37671 8.43928 2.07877C9.99113 1.78083 11.5997 1.93374 13.0615 2.51817C14.5233 3.1026 15.7727 4.0923 16.6518 5.36211C17.5308 6.63192 18 8.12481 18 9.652C18 11.6999 17.1571 13.6639 15.6569 15.112C14.1566 16.5601 12.1217 17.3736 10 17.3736Z" fill="white"/>
<path d="M13.531 10.3333L9.53104 14.1941C9.34274 14.3759 9.08734 14.478 8.82104 14.478C8.55474 14.478 8.29934 14.3759 8.11104 14.1941C7.92274 14.0124 7.81695 13.7659 7.81695 13.5088C7.81695 13.2518 7.92274 13.0053 8.11104 12.8236L11.411 9.64805L8.11104 6.47254C7.92274 6.29079 7.81695 6.04428 7.81695 5.78725C7.81695 5.65998 7.84292 5.53396 7.89338 5.41637C7.94384 5.29879 8.0178 5.19195 8.11104 5.10196C8.20428 5.01197 8.31497 4.94058 8.43679 4.89187C8.55861 4.84317 8.68918 4.8181 8.82104 4.8181C9.08734 4.8181 9.34274 4.92021 9.53104 5.10196L13.531 8.96276C13.6248 9.05249 13.6992 9.15924 13.7499 9.27686C13.8007 9.39448 13.8268 9.52063 13.8268 9.64805C13.8268 9.77547 13.8007 9.90162 13.7499 10.0192C13.6992 10.1369 13.6248 10.2436 13.531 10.3333Z" fill="white"/>
</svg>
