<svg width="20" height="35" viewBox="0 0 20 35" fill="none" xmlns="http://www.w3.org/2000/svg">
<path d="M19.4091 15.9924C19.5963 16.1716 19.7449 16.3849 19.8464 16.6198C19.9478 16.8548 20 17.1068 20 17.3614C20 17.6159 19.9478 17.8679 19.8464 18.1029C19.7449 18.3379 19.5963 18.5511 19.4091 18.7304L3.42762 34.1557C3.24191 34.3364 3.02097 34.4798 2.77753 34.5777C2.53409 34.6756 2.27298 34.726 2.00927 34.726C1.74555 34.726 1.48444 34.6756 1.241 34.5777C0.997568 34.4798 0.776622 34.3364 0.590911 34.1557C0.403672 33.9764 0.255056 33.7632 0.153636 33.5282C0.0522164 33.2932 0 33.0412 0 32.7867C0 32.5321 0.0522164 32.2801 0.153636 32.0451C0.255056 31.8102 0.403672 31.5969 0.590911 31.4177L15.174 17.3614L0.590911 3.30505C0.21474 2.94197 0.00340924 2.44953 0.00340925 1.93605C0.00340925 1.42258 0.21474 0.930137 0.590911 0.567057C0.967083 0.203976 1.47728 3.82567e-09 2.00927 0C2.54125 -3.82567e-09 3.05145 0.203976 3.42762 0.567057L19.4091 15.9924Z" fill="white"/>
</svg>
