<svg width="45" height="44" viewBox="0 0 45 44" fill="none" xmlns="http://www.w3.org/2000/svg">
<path d="M22.5 0C18.0499 0 13.6998 1.27368 9.99968 3.65997C6.29957 6.04627 3.41569 9.438 1.71272 13.4063C0.00974889 17.3745 -0.435826 21.7411 0.432341 25.9538C1.30051 30.1665 3.44343 34.0361 6.59011 37.0732C9.73679 40.1104 13.7459 42.1788 18.1105 43.0167C22.475 43.8547 26.999 43.4246 31.1104 41.7809C35.2217 40.1372 38.7357 37.3537 41.2081 33.7823C43.6804 30.211 45 26.0122 45 21.717C45 18.8651 44.418 16.0411 43.2873 13.4063C42.1566 10.7714 40.4992 8.37737 38.4099 6.36076C36.3206 4.34415 33.8402 2.74449 31.1104 1.65311C28.3806 0.561727 25.4547 0 22.5 0ZM22.5 39.0906C18.9399 39.0906 15.4598 38.0717 12.4997 36.1626C9.53966 34.2536 7.23255 31.5402 5.87018 28.3656C4.5078 25.191 4.15134 21.6977 4.84587 18.3276C5.54041 14.9574 7.25474 11.8618 9.77209 9.43201C12.2894 7.00227 15.4967 5.34759 18.9884 4.67723C22.48 4.00686 26.0992 4.35092 29.3883 5.66589C32.6774 6.98085 35.4886 9.20767 37.4665 12.0647C39.4443 14.9218 40.5 18.2808 40.5 21.717C40.5 26.3248 38.6036 30.7438 35.2279 34.002C31.8523 37.2602 27.2739 39.0906 22.5 39.0906Z" fill="white"/>
<path d="M30.4448 23.25L21.4448 31.9368C21.0212 32.3458 20.4465 32.5755 19.8473 32.5755C19.2482 32.5755 18.6735 32.3458 18.2498 31.9368C17.8262 31.5279 17.5881 30.9732 17.5881 30.3949C17.5881 29.8166 17.8262 29.2619 18.2498 28.853L25.6748 21.7081L18.2498 14.5632C17.8262 14.1543 17.5881 13.5996 17.5881 13.0213C17.5881 12.735 17.6466 12.4514 17.7601 12.1868C17.8736 11.9223 18.0401 11.6819 18.2498 11.4794C18.4596 11.2769 18.7087 11.1163 18.9828 11.0067C19.2569 10.8971 19.5507 10.8407 19.8473 10.8407C20.4465 10.8407 21.0212 11.0705 21.4448 11.4794L30.4448 20.1662C30.6557 20.3681 30.8231 20.6083 30.9373 20.8729C31.0516 21.1376 31.1104 21.4214 31.1104 21.7081C31.1104 21.9948 31.0516 22.2787 30.9373 22.5433C30.8231 22.8079 30.6557 23.0481 30.4448 23.25Z" fill="white"/>
</svg>
