<svg width="45" height="44" viewBox="0 0 45 44" fill="none" xmlns="http://www.w3.org/2000/svg">
<path d="M45 21.717C45 26.0122 43.6804 30.211 41.2081 33.7823C38.7357 37.3537 35.2217 40.1372 31.1104 41.7809C26.999 43.4246 22.475 43.8547 18.1105 43.0167C13.7459 42.1788 9.73679 40.1104 6.59011 37.0732C3.44343 34.0361 1.30051 30.1665 0.432341 25.9538C-0.435826 21.7411 0.00974889 17.3745 1.71272 13.4063C3.41569 9.438 6.29957 6.04627 9.99968 3.65997C13.6998 1.27368 18.0499 0 22.5 0C25.4547 0 28.3806 0.561727 31.1104 1.65311C33.8402 2.74449 36.3206 4.34415 38.4099 6.36076C40.4992 8.37737 42.1566 10.7714 43.2873 13.4063C44.418 16.0411 45 18.8651 45 21.717ZM40.5 21.717C40.5 18.2808 39.4443 14.9218 37.4665 12.0647C35.4886 9.20767 32.6774 6.98085 29.3883 5.66589C26.0992 4.35092 22.48 4.00686 18.9884 4.67723C15.4967 5.34759 12.2894 7.00227 9.77209 9.43201C7.25474 11.8617 5.54041 14.9574 4.84587 18.3276C4.15134 21.6977 4.5078 25.191 5.87018 28.3656C7.23255 31.5402 9.53966 34.2536 12.4997 36.1626C15.4598 38.0716 18.9399 39.0906 22.5 39.0906C27.2739 39.0906 31.8523 37.2602 35.2279 34.002C38.6036 30.7438 40.5 26.3248 40.5 21.717Z" fill="white"/>
<path d="M28.6105 28.8707C29.0342 29.2797 29.2722 29.8343 29.2722 30.4126C29.2722 30.991 29.0342 31.5456 28.6105 31.9545C28.1869 32.3635 27.6122 32.5932 27.013 32.5932C26.4139 32.5932 25.8392 32.3635 25.4155 31.9545L16.4155 23.2677C16.2047 23.0659 16.0373 22.8257 15.923 22.561C15.8088 22.2964 15.75 22.0125 15.75 21.7258C15.75 21.4392 15.8088 21.1553 15.923 20.8907C16.0373 20.626 16.2047 20.3858 16.4155 20.1839L25.4155 11.4971C25.6253 11.2947 25.8744 11.134 26.1485 11.0244C26.4226 10.9149 26.7164 10.8585 27.013 10.8585C27.3097 10.8585 27.6035 10.9149 27.8776 11.0244C28.1517 11.134 28.4008 11.2947 28.6105 11.4971C28.8203 11.6996 28.9867 11.94 29.1003 12.2046C29.2138 12.4691 29.2722 12.7527 29.2722 13.039C29.2722 13.3254 29.2138 13.609 29.1003 13.8735C28.9867 14.1381 28.8203 14.3785 28.6105 14.581L21.1855 21.7258L28.6105 28.8707Z" fill="white"/>
</svg>
