<svg width="27" height="27" viewBox="0 0 27 27" fill="none" xmlns="http://www.w3.org/2000/svg">
<path d="M1 4.21734V4.21734C1 4.01554 1 3.91464 1.00485 3.82941C1.09158 2.30682 2.30681 1.09158 3.8294 1.00486C3.91463 1.00001 4.01553 1.00001 4.21733 1.00001L23.4141 1.00001C23.8075 1.00001 24.0042 1.00001 24.1393 1.10456C24.1728 1.13047 24.2029 1.16054 24.2288 1.19403C24.3333 1.32915 24.3333 1.52585 24.3333 1.91924V1.91924C24.3333 4.27961 24.3333 5.45979 23.706 6.27055C23.5505 6.47149 23.3702 6.65186 23.1692 6.80734C22.3585 7.43467 21.1783 7.43467 18.8179 7.43467H18.5M1 4.21734V4.21734C1 4.41914 1 4.52004 1.00485 4.60527C1.09158 6.12786 2.30681 7.34309 3.8294 7.42982C3.91463 7.43467 4.01553 7.43467 4.21733 7.43467L24 7.43467C24.9428 7.43467 25.4142 7.43467 25.7071 7.72756C26 8.02046 26 8.49186 26 9.43467V13.8693M1 4.21734L1 21.13C1 23.0156 1 23.9584 1.58579 24.5442C2.17157 25.13 3.11438 25.13 5 25.13L24 25.13C24.9428 25.13 25.4142 25.13 25.7071 24.8371C26 24.5442 26 24.0728 26 23.13V20.304M26 20.304H21.3333C20.3905 20.304 19.9191 20.304 19.6262 20.0111C19.3333 19.7182 19.3333 19.2468 19.3333 18.304V15.8693C19.3333 14.9265 19.3333 14.4551 19.6262 14.1622C19.9191 13.8693 20.3905 13.8693 21.3333 13.8693H26M26 20.304L26 13.8693" stroke="white" stroke-width="2"/>
</svg>
