<svg width="27" height="25" viewBox="0 0 27 25" fill="none" xmlns="http://www.w3.org/2000/svg">
<path d="M1 9.83289C1 8.89008 1 8.41867 1.29289 8.12578C1.58579 7.83289 2.05719 7.83289 3 7.83289H24C24.9428 7.83289 25.4142 7.83289 25.7071 8.12578C26 8.41867 26 8.89008 26 9.83289V12.5357C26 13.4785 26 13.9499 25.7071 14.2428C25.4142 14.5357 24.9428 14.5357 24 14.5357H23.8333C22.8905 14.5357 22.4191 14.5357 22.1262 14.8286C21.8333 15.1214 21.8333 15.5929 21.8333 16.5357V21.9196C21.8333 22.8624 21.8333 23.3338 21.5404 23.6267C21.2475 23.9196 20.7761 23.9196 19.8333 23.9196H7.16667C6.22386 23.9196 5.75245 23.9196 5.45956 23.6267C5.16667 23.3338 5.16667 22.8624 5.16667 21.9196V16.5357C5.16667 15.5929 5.16667 15.1214 4.87377 14.8286C4.58088 14.5357 4.10948 14.5357 3.16667 14.5357H3C2.05719 14.5357 1.58579 14.5357 1.29289 14.2428C1 13.9499 1 13.4785 1 12.5357V9.83289Z" stroke="white" stroke-width="2"/>
<path d="M3.77771 14.5355H23.2222" stroke="white" stroke-width="2" stroke-linecap="round"/>
<path d="M13.5 6.49207L13.5 23.9193" stroke="white" stroke-width="2" stroke-linecap="round"/>
<path d="M13.4999 6.49223L11.8659 4.91509C10.6565 3.74779 9.19574 2.87317 7.59568 2.35837L6.39026 1.97055C5.09912 1.55515 3.77771 2.51812 3.77771 3.87444V5.03473C3.77771 5.90331 4.33833 6.6726 5.16517 6.93862L7.94438 7.83278" stroke="white" stroke-width="2" stroke-linecap="round"/>
<path d="M13.5001 6.49223L15.1341 4.91509C16.3435 3.74779 17.8043 2.87317 19.4043 2.35837L20.6097 1.97055C21.9009 1.55515 23.2223 2.51812 23.2223 3.87444V5.03473C23.2223 5.90331 22.6617 6.6726 21.8348 6.93862L19.0556 7.83278" stroke="white" stroke-width="2" stroke-linecap="round"/>
</svg>
