<svg width="26" height="25" viewBox="0 0 26 25" fill="none" xmlns="http://www.w3.org/2000/svg">
<path d="M1 1.13H3.98656C4.67486 1.13 5.01901 1.13 5.27949 1.31562C5.53997 1.50124 5.65231 1.82654 5.877 2.47714L6.88235 5.38824" stroke="white" stroke-width="2" stroke-linecap="round"/>
<path d="M21.5881 19.5823H7.64669C6.89901 19.5823 6.52517 19.5823 6.2803 19.4274C6.05916 19.2875 5.90166 19.0665 5.84161 18.8118C5.77512 18.5298 5.89715 18.1764 6.14122 17.4697V17.4697C6.40583 16.7035 6.53813 16.3204 6.77709 16.0364C6.99471 15.7778 7.27433 15.5785 7.58983 15.4573C7.93627 15.3241 8.34157 15.3241 9.15216 15.3241H17.1763" stroke="white" stroke-width="2" stroke-linecap="round" stroke-linejoin="round"/>
<path d="M17.8374 15.3239H10.9535C9.69139 15.3239 9.06032 15.3239 8.56317 15.0007C8.06603 14.6775 7.80993 14.1008 7.29772 12.9472L5.81393 9.60552C4.96951 7.70376 4.54729 6.75288 4.99094 6.07047C5.43459 5.38806 6.47499 5.38806 8.55579 5.38806H20.7377C23.0728 5.38806 24.2404 5.38806 24.672 6.14518C25.1036 6.9023 24.5088 7.907 23.3192 9.9164L21.2794 13.3617L21.2794 13.3617C20.7122 14.3199 20.4286 14.7989 19.9681 15.0614C19.5076 15.3239 18.9509 15.3239 17.8374 15.3239Z" stroke="white" stroke-width="2" stroke-linecap="round"/>
<ellipse cx="20.8534" cy="23.1308" rx="1.47059" ry="1.41941" fill="white"/>
<ellipse cx="9.08778" cy="23.1308" rx="1.47059" ry="1.41941" fill="white"/>
</svg>
